<svg 
 xmlns="http://www.w3.org/2000/svg"
 xmlns:xlink="http://www.w3.org/1999/xlink"
 width="31px" height="37px">
<path fill-rule="evenodd"  fill="rgb(255, 255, 255)"
 d="M28.427,33.753 C28.098,35.123 27.711,36.581 26.093,36.589 L13.481,36.589 C12.655,36.580 11.923,36.052 11.654,35.270 C9.888,32.014 7.108,29.919 6.608,25.382 C6.369,22.567 6.051,18.776 9.492,17.886 L11.759,17.277 L11.759,4.774 C11.859,0.910 17.512,0.931 17.606,4.774 L17.606,13.124 C18.890,12.533 20.414,12.955 21.212,14.121 C22.825,12.871 25.344,13.780 25.771,15.783 C27.662,15.173 29.274,16.075 29.688,18.384 C31.031,24.959 29.337,30.679 28.427,33.753 ZM28.002,18.726 C27.625,16.885 26.799,17.201 25.860,17.614 L25.860,20.595 C25.860,21.070 25.475,21.456 25.000,21.456 C24.526,21.456 24.140,21.070 24.140,20.595 L24.140,16.468 C24.115,14.885 21.758,14.887 21.733,16.468 L21.733,19.907 C21.728,21.032 20.017,21.030 20.013,19.907 L20.013,15.781 C20.013,15.115 19.474,14.577 18.809,14.577 C18.144,14.577 17.605,15.115 17.605,15.781 L17.605,19.907 C17.599,21.033 15.892,21.031 15.885,19.907 L15.885,4.774 C15.857,3.186 13.504,3.199 13.478,4.774 L13.483,24.722 C13.475,25.851 11.772,25.844 11.764,24.722 L11.764,19.057 L9.950,19.544 C7.494,20.250 8.315,23.277 8.317,25.202 C8.835,29.364 11.704,31.697 13.481,34.867 L26.093,34.867 C26.230,34.870 26.352,34.779 26.386,34.646 C26.480,34.273 26.618,33.805 26.778,33.264 C27.645,30.333 29.263,24.880 28.002,18.726 ZM26.158,7.468 C25.345,8.247 24.157,7.014 24.962,6.231 L26.246,4.947 L20.067,4.947 C18.942,4.941 18.943,3.232 20.067,3.227 L26.246,3.227 C26.245,3.227 24.961,1.942 24.961,1.942 C24.170,1.142 25.382,-0.063 26.179,0.729 L28.930,3.480 C29.265,3.816 29.265,4.360 28.930,4.696 C28.903,4.704 26.187,7.466 26.158,7.468 ZM9.299,4.947 L3.120,4.947 L4.409,6.231 C5.200,7.033 3.986,8.239 3.188,7.446 L0.436,4.694 C0.104,4.370 0.102,3.804 0.436,3.479 L3.188,0.728 C3.985,-0.067 5.200,1.144 4.409,1.943 L3.120,3.227 L9.299,3.227 C9.773,3.227 10.159,3.612 10.159,4.087 C10.159,4.561 9.773,4.947 9.299,4.947 Z"/>
</svg>