<svg 
 xmlns="http://www.w3.org/2000/svg"
 xmlns:xlink="http://www.w3.org/1999/xlink"
 width="406px" height="406px">
<path fill-rule="evenodd"  fill="rgb(255, 255, 255)"
 d="M385.329,195.696 L405.120,194.107 L405.921,204.073 L386.131,205.662 C375.657,206.555 369.274,200.652 368.440,190.281 C367.607,179.912 372.716,173.137 383.548,172.267 L403.236,170.686 L404.038,180.651 L384.349,182.232 C378.781,182.680 376.669,185.548 376.994,189.595 C377.320,193.641 379.964,196.127 385.329,195.696 ZM390.624,153.984 L364.450,161.613 L361.650,152.017 L387.823,144.387 L384.923,134.449 L392.867,132.134 L401.483,161.654 L393.539,163.970 L390.624,153.984 ZM378.501,124.191 C379.026,121.192 378.305,118.427 376.901,115.667 C375.797,113.496 374.037,111.714 372.362,112.565 C370.189,113.668 370.953,115.956 372.224,119.238 C374.742,125.872 375.542,133.721 368.254,137.421 C361.056,141.077 354.528,135.854 350.871,128.774 C347.927,123.095 346.853,118.518 349.239,111.784 L357.405,113.842 C355.959,118.505 357.187,122.264 358.544,124.933 C360.040,127.874 362.115,129.382 363.881,128.485 C365.466,127.680 365.541,125.365 364.087,121.720 C361.201,114.475 359.930,107.607 367.807,103.606 C374.507,100.204 380.740,105.293 384.144,111.988 C386.560,116.740 387.359,121.001 386.414,125.751 L378.501,124.191 ZM356.716,85.445 L324.268,99.695 L343.708,82.766 L336.214,76.238 L361.508,69.228 L349.222,78.918 L356.716,85.445 ZM307.270,61.418 L319.767,70.731 L314.693,77.534 L291.369,60.152 L293.209,57.686 L319.852,47.955 L308.071,39.175 L312.819,32.811 L335.148,49.451 L333.485,51.678 L307.270,61.418 ZM285.205,27.473 L283.026,31.933 L297.794,39.141 L294.286,46.321 L279.518,39.112 L277.209,43.840 L293.493,51.788 L289.854,59.236 L264.869,47.039 L280.122,15.824 L304.483,27.715 L300.865,35.118 L285.205,27.473 ZM244.039,40.899 L229.608,37.217 L238.203,3.560 L252.634,7.242 C264.517,10.274 268.375,19.042 266.005,28.322 C263.635,37.601 256.114,43.979 244.039,40.899 ZM250.608,15.175 L245.606,13.900 L241.086,31.594 L246.090,32.869 C252.151,34.416 255.422,30.437 256.601,25.820 C257.780,21.205 256.429,16.661 250.608,15.175 ZM231.443,67.899 C230.974,70.641 228.847,71.218 226.198,70.765 C225.440,70.636 224.378,70.584 224.160,71.862 L230.499,72.944 L230.046,75.592 L220.727,74.000 L221.166,71.430 C221.727,68.153 224.347,67.919 226.618,68.306 C227.233,68.413 228.207,68.319 228.361,67.421 C228.492,66.648 227.800,66.238 227.043,66.109 C226.128,65.952 225.472,66.181 225.250,67.003 L222.207,66.483 C222.663,63.917 225.006,63.214 227.466,63.634 C229.942,64.057 231.845,65.550 231.443,67.899 ZM186.597,1.361 L213.702,0.919 L213.837,9.155 L196.412,9.439 L196.493,14.401 L212.925,14.133 L213.055,22.121 L196.624,22.389 L196.709,27.648 L214.829,27.353 L214.964,35.639 L187.164,36.092 L186.597,1.361 ZM178.440,75.225 L173.725,76.110 L171.658,65.113 L176.373,64.228 C180.255,63.499 182.575,65.537 183.145,68.568 C183.714,71.600 182.385,74.485 178.440,75.225 ZM180.058,69.116 C179.775,67.607 178.763,66.463 176.860,66.821 L175.226,67.127 L176.312,72.908 L177.947,72.602 C179.927,72.230 180.342,70.623 180.058,69.116 ZM174.398,38.239 L164.813,40.180 L159.519,14.065 L149.593,16.075 L147.986,8.149 L177.471,2.176 L179.079,10.104 L169.104,12.124 L174.398,38.239 ZM154.992,41.299 L155.219,41.850 L145.213,45.971 L133.436,38.638 L130.268,39.943 L134.562,50.358 L125.474,54.102 L112.232,21.985 L127.930,15.519 C136.147,12.135 142.592,15.652 144.976,21.433 C146.602,25.379 146.606,29.295 142.173,33.913 L154.992,41.299 ZM136.100,25.304 C135.268,23.285 133.307,21.785 130.919,22.768 L124.309,25.491 L127.488,33.199 L134.190,30.437 C136.577,29.455 136.895,27.231 136.100,25.304 ZM115.603,60.076 L110.465,56.698 L97.713,65.577 L99.102,71.565 L90.546,77.522 L83.473,40.109 L91.621,34.436 L124.241,54.063 L115.603,60.076 ZM93.069,45.283 L95.731,56.916 L103.024,51.839 L93.069,45.283 ZM80.011,188.974 C78.053,188.974 76.466,187.388 76.466,185.431 C76.466,183.474 78.053,181.888 80.011,181.888 C81.969,181.888 83.556,183.474 83.556,185.431 C83.556,187.388 81.969,188.974 80.011,188.974 ZM49.508,85.445 L57.002,78.918 L44.716,69.228 L70.009,76.238 L62.515,82.766 L81.955,99.695 L49.508,85.445 ZM57.479,121.937 L33.738,126.688 L40.762,130.010 L50.946,135.070 L46.426,144.158 L14.599,128.343 L18.397,120.709 L42.501,115.912 C38.570,114.241 37.115,113.518 35.864,112.953 L24.952,107.531 L29.451,98.488 L61.277,114.303 L57.479,121.937 ZM19.138,148.619 C16.162,150.565 14.784,153.470 14.225,155.789 C12.871,161.413 15.349,165.872 22.112,167.499 C26.554,168.567 32.592,167.567 34.267,160.609 C34.707,158.784 35.050,155.839 34.094,153.522 L29.651,152.454 L27.548,161.186 L19.897,159.345 L23.960,142.471 L39.312,146.164 C43.183,149.392 44.103,155.981 42.499,162.642 C39.208,176.309 28.829,179.293 19.795,177.120 C10.761,174.947 2.907,166.794 6.031,153.819 C7.183,149.032 9.192,145.026 14.876,141.592 L19.138,148.619 ZM36.623,195.079 L1.194,192.274 L1.984,182.308 L37.412,185.113 L36.623,195.079 ZM10.654,207.287 C8.989,209.836 8.561,212.661 8.762,215.749 C8.920,218.180 9.835,220.511 11.709,220.389 C14.141,220.231 14.341,217.829 14.469,214.311 C14.771,207.223 17.131,199.696 25.288,199.167 C33.343,198.644 37.282,206.015 37.850,213.963 C38.315,220.339 37.497,224.970 32.648,230.217 L25.957,225.108 C29.124,221.394 29.479,217.455 29.285,214.468 C29.071,211.176 27.757,208.974 25.781,209.101 C24.008,209.217 23.025,211.314 22.924,215.237 C22.718,223.030 21.177,229.843 12.361,230.415 C4.863,230.902 1.143,223.770 0.656,216.276 C0.310,210.958 1.256,206.728 3.999,202.735 L10.654,207.287 ZM16.653,256.112 L21.565,254.823 L17.296,238.576 L25.203,236.501 L29.471,252.748 L34.676,251.382 L29.970,233.467 L38.171,231.314 L45.392,258.801 L11.016,267.823 L3.975,241.023 L12.127,238.883 L16.653,256.112 ZM30.061,270.244 C38.819,265.849 48.790,267.376 54.508,278.759 L61.343,292.366 L29.579,308.306 L22.745,294.699 C17.117,283.497 21.304,274.638 30.061,270.244 ZM30.231,290.941 L32.601,295.658 L49.299,287.279 L46.930,282.562 C44.060,276.848 38.792,276.993 34.435,279.178 C30.080,281.364 27.475,285.454 30.231,290.941 ZM49.508,321.495 L81.955,307.245 L62.515,324.175 L70.009,330.702 L44.716,337.713 L57.002,328.023 L49.508,321.495 ZM83.556,221.509 C83.556,223.466 81.969,225.053 80.011,225.053 C78.053,225.053 76.466,223.466 76.466,221.509 C76.466,219.552 78.053,217.966 80.011,217.966 C81.969,217.966 83.556,219.552 83.556,221.509 ZM79.442,205.999 C79.442,208.737 76.947,209.557 74.714,209.574 L68.414,209.574 L68.414,197.366 L74.661,197.366 C77.104,197.366 79.093,198.447 79.093,200.784 C79.093,201.709 78.814,202.668 77.750,203.156 C78.884,203.767 79.442,204.900 79.442,205.999 ZM74.609,200.157 L71.817,200.157 L71.817,202.023 L74.574,202.023 C75.289,202.023 75.673,201.656 75.673,201.116 C75.673,200.575 75.289,200.157 74.609,200.157 ZM74.731,204.569 L71.817,204.569 L71.817,206.888 L74.731,206.888 C75.603,206.888 76.022,206.418 76.022,205.738 C76.022,205.075 75.586,204.569 74.731,204.569 ZM92.616,209.574 L88.813,209.574 L85.969,205.615 L84.765,205.615 L84.765,209.574 L81.310,209.574 L81.310,197.366 L87.277,197.366 C90.400,197.366 92.023,199.372 92.023,201.570 C92.023,203.069 91.500,204.342 89.441,205.249 L92.616,209.365 L92.616,209.574 ZM87.277,200.122 L84.765,200.122 L84.765,203.051 L87.312,203.051 C88.220,203.051 88.621,202.371 88.621,201.639 C88.621,200.872 88.184,200.122 87.277,200.122 ZM107.265,340.724 L98.967,377.862 L90.526,371.577 L92.104,365.637 L79.641,356.358 L74.398,359.572 L66.037,353.346 L99.301,334.795 L107.265,340.724 ZM87.232,351.738 L94.360,357.044 L97.429,345.531 L87.232,351.738 ZM135.571,356.585 C143.656,360.273 145.486,367.382 142.888,373.070 C141.115,376.953 138.254,379.630 131.852,379.546 L135.206,393.951 L134.959,394.493 L125.113,389.1000 L122.431,376.393 L119.314,374.971 L114.633,385.219 L105.690,381.138 L120.124,349.535 L135.571,356.585 ZM128.940,371.343 C131.288,372.415 133.131,371.128 133.997,369.233 C134.905,367.246 134.662,364.789 132.313,363.718 L125.809,360.750 L122.345,368.335 L128.940,371.343 ZM141.271,331.124 C139.313,331.124 137.725,329.537 137.725,327.580 C137.725,325.623 139.313,324.037 141.271,324.037 C143.229,324.037 144.816,325.623 144.816,327.580 C144.816,329.537 143.229,331.124 141.271,331.124 ZM148.259,362.260 L177.477,369.444 L175.543,377.299 L165.659,374.869 L159.290,400.748 L149.791,398.412 L156.161,372.534 L146.325,370.115 L148.259,362.260 ZM206.396,371.294 L205.866,379.515 L188.477,378.396 L188.158,383.347 L204.557,384.402 L204.043,392.375 L187.644,391.320 L187.306,396.570 L205.390,397.733 L204.857,406.002 L177.113,404.218 L179.345,369.554 L206.396,371.294 ZM209.359,335.911 L212.844,335.700 L219.034,347.560 L215.341,347.783 L214.418,345.829 L208.966,346.159 L208.285,348.209 L204.626,348.430 L209.359,335.911 ZM213.076,343.009 L211.291,339.220 L209.958,343.198 L213.076,343.009 ZM221.636,334.785 L222.705,341.486 C223.006,343.380 224.046,344.027 225.424,343.807 C226.804,343.588 227.585,342.615 227.294,340.789 L226.220,334.054 L229.615,333.514 L230.689,340.249 C231.275,343.811 229.421,346.155 225.889,346.718 C222.356,347.281 219.897,345.712 219.309,342.026 L218.241,335.326 L221.636,334.785 ZM256.359,380.925 C258.232,390.317 254.204,399.316 241.982,401.751 L227.376,404.661 L220.584,370.595 L235.191,367.685 C247.217,365.289 254.486,371.532 256.359,380.925 ZM235.299,394.632 L240.363,393.624 C246.497,392.402 247.727,387.400 246.797,382.728 C245.865,378.056 242.683,374.541 236.792,375.715 L231.728,376.723 L235.299,394.632 ZM280.439,352.480 L283.622,360.078 L267.547,366.804 L269.464,371.381 L284.623,365.039 L287.710,372.408 L272.550,378.751 L274.583,383.604 L291.299,376.609 L294.501,384.254 L268.854,394.984 L255.434,362.943 L280.439,352.480 ZM292.946,293.258 L272.730,293.258 L272.730,273.198 L280.066,273.198 L280.066,146.240 L285.695,146.240 L285.695,273.198 L292.946,273.198 L292.946,293.258 ZM268.498,327.580 C268.498,329.537 266.911,331.124 264.953,331.124 C262.995,331.124 261.407,329.537 261.407,327.580 C261.407,325.623 262.995,324.037 264.953,324.037 C266.911,324.037 268.498,325.623 268.498,327.580 ZM170.326,68.101 L167.165,68.973 L169.447,77.250 L166.409,78.086 L164.126,69.810 L160.980,70.676 L160.288,68.164 L169.633,65.589 L170.326,68.101 ZM260.631,267.066 L210.424,267.066 L210.424,262.024 L235.893,223.148 L207.901,223.148 L207.901,210.134 L257.456,210.134 L257.456,214.690 L232.557,253.157 L260.631,253.157 L260.631,267.066 ZM260.631,153.131 L242.240,153.131 L242.240,196.807 L226.210,196.807 L226.210,153.131 L207.901,153.131 L207.901,139.874 L260.631,139.874 L260.631,153.131 ZM206.337,238.194 C206.337,253.891 196.980,267.066 176.555,267.066 L152.144,267.066 L152.144,210.134 L176.555,210.134 C196.655,210.134 206.337,222.496 206.337,238.194 ZM168.092,253.485 L176.555,253.485 C186.809,253.485 190.389,245.839 190.389,238.030 C190.389,230.224 186.400,223.554 176.555,223.554 L168.092,223.554 L168.092,253.485 ZM171.144,139.874 L187.418,139.874 L212.889,196.807 L195.637,196.807 L191.894,187.454 L166.424,187.454 L162.681,196.807 L145.592,196.807 L171.144,139.874 ZM186.442,173.952 L179.199,155.815 L171.875,173.952 L186.442,173.952 ZM247.044,328.222 C250.826,326.882 254.222,328.160 255.579,331.990 C256.942,335.836 255.102,338.949 251.319,340.287 C247.552,341.621 244.146,340.365 242.783,336.519 C241.443,332.738 243.277,329.555 247.044,328.222 ZM246.039,335.366 C246.721,337.290 248.493,338.161 250.334,337.509 C252.242,336.833 252.998,335.050 252.322,333.143 C251.624,331.171 249.935,330.324 248.028,330.1000 C246.169,331.657 245.363,333.459 246.039,335.366 ZM231.442,333.046 L234.793,332.199 L237.069,341.197 L242.738,339.763 L243.457,342.604 L234.438,344.884 L231.442,333.046 ZM204.988,340.609 C204.916,343.102 203.220,344.989 199.957,344.930 L197.480,344.858 L197.384,348.153 L193.930,348.052 L194.285,335.847 L200.216,336.020 C203.496,336.116 205.059,338.220 204.988,340.609 ZM197.653,338.912 L197.565,341.946 L200.042,342.018 C201.001,342.046 201.510,341.362 201.534,340.560 C201.557,339.758 201.072,339.012 200.130,338.985 L197.653,338.912 ZM182.474,334.134 C186.438,334.760 188.813,337.501 188.178,341.515 C187.541,345.546 184.439,347.403 180.475,346.777 C176.528,346.154 174.133,343.427 174.771,339.396 C175.397,335.435 178.527,333.510 182.474,334.134 ZM180.935,343.866 C182.934,344.182 184.450,342.974 184.766,340.976 C185.093,338.909 184.013,337.361 182.014,337.045 C180.066,336.738 178.499,337.937 178.183,339.935 C177.864,341.951 179.005,343.561 180.935,343.866 ZM153.406,339.807 C151.335,339.065 149.993,338.164 149.017,335.911 L151.555,334.519 C152.282,336.031 153.472,336.690 154.438,337.045 C155.503,337.435 156.379,337.329 156.613,336.690 C156.824,336.117 156.301,335.517 155.081,334.940 C152.658,333.790 150.730,332.359 151.776,329.509 C152.666,327.086 155.427,326.909 157.852,327.798 C159.572,328.429 160.771,329.315 161.645,330.732 L159.288,332.190 C158.718,331.312 157.889,330.785 156.890,330.418 C156.103,330.131 155.243,330.094 155.020,330.699 C154.732,331.486 155.460,331.882 156.548,332.412 C158.736,333.493 160.774,335.281 159.807,337.917 C158.851,340.521 155.984,340.733 153.406,339.807 ZM169.498,330.430 C168.863,329.829 168.193,329.562 167.663,330.197 L166.246,328.667 C167.231,327.268 169.075,327.323 170.203,328.380 C170.839,328.981 171.428,329.209 172.084,328.571 L173.439,330.066 C172.442,331.444 170.903,331.668 169.498,330.430 ZM169.316,342.218 L164.036,340.821 L162.747,342.554 L159.204,341.616 L167.628,331.216 L171.002,332.110 L173.155,345.309 L169.578,344.363 L169.316,342.218 ZM168.422,334.963 L165.908,338.321 L168.928,339.120 L168.422,334.963 ZM133.494,280.449 L260.816,280.449 L260.816,286.035 L133.494,286.035 L133.494,293.258 L113.278,293.258 L113.278,273.198 L133.494,273.198 L133.494,280.449 ZM120.585,260.728 L120.585,133.742 L113.278,133.742 L113.278,113.683 L133.494,113.683 L133.494,133.742 L126.215,133.742 L126.215,260.728 L120.585,260.728 ZM151.802,80.285 L152.906,82.715 L144.749,86.415 L140.121,76.224 L148.075,72.616 L149.171,75.033 L144.059,77.352 L144.721,78.808 L149.542,76.621 L150.607,78.966 L145.785,81.153 L146.486,82.695 L151.802,80.285 ZM156.319,73.963 C158.492,73.435 160.977,73.490 161.850,75.912 C162.713,78.302 160.825,80.138 158.468,81.004 C156.578,81.702 155.104,81.860 153.092,80.853 L154.053,78.381 C155.455,79.015 156.679,78.778 157.566,78.458 C158.544,78.105 159.097,77.515 158.885,76.929 C158.695,76.402 157.974,76.289 156.778,76.601 C154.400,77.220 152.202,77.349 151.258,74.732 C150.455,72.507 152.290,70.758 154.516,69.956 C156.096,69.387 157.460,69.303 158.908,69.784 L158.112,72.195 C157.194,71.913 156.302,72.032 155.384,72.363 C154.662,72.622 154.037,73.103 154.237,73.660 C154.497,74.380 155.243,74.231 156.319,73.963 ZM211.477,69.131 L211.477,71.335 L213.592,71.335 L213.592,76.789 L208.135,76.789 L208.135,71.335 L210.250,71.335 L210.250,69.131 C210.253,66.244 208.511,63.640 205.840,62.539 L205.840,64.110 L200.383,64.110 L200.383,62.540 C197.719,63.648 195.980,66.247 195.974,69.131 L195.974,71.335 L198.088,71.335 L198.088,76.789 L192.632,76.789 L192.632,71.335 L194.746,71.335 L194.746,69.131 C194.739,67.291 195.346,65.501 196.471,64.044 C197.100,63.227 197.874,62.534 198.754,61.997 L196.583,61.997 C196.384,62.622 195.894,63.112 195.269,63.310 C194.204,63.649 193.066,63.061 192.727,61.997 C192.388,60.933 192.976,59.795 194.041,59.456 C195.106,59.118 196.244,59.706 196.583,60.770 L200.383,60.770 L200.383,58.657 L205.840,58.657 L205.840,60.770 L209.640,60.770 C209.840,60.145 210.329,59.656 210.954,59.456 C212.019,59.118 213.157,59.706 213.496,60.770 C213.835,61.834 213.247,62.972 212.182,63.310 C211.117,63.649 209.979,63.061 209.640,61.997 L207.476,61.997 C209.964,63.514 211.480,66.218 211.477,69.131 ZM236.287,77.449 C233.717,76.782 231.667,74.814 232.587,71.270 L232.972,69.784 C233.888,66.254 236.518,65.483 239.181,66.174 C241.891,66.877 243.673,68.925 242.789,72.330 L242.407,73.800 C241.507,77.266 238.889,78.123 236.287,77.449 ZM238.510,68.759 C237.442,68.482 236.398,68.937 235.972,70.578 L235.590,72.048 C235.160,73.704 235.792,74.644 236.876,74.925 C237.960,75.206 238.986,74.696 239.415,73.040 L239.797,71.570 C240.211,69.976 239.594,69.040 238.510,68.759 ZM247.168,80.785 C244.665,79.898 242.793,77.758 244.017,74.306 L244.530,72.860 C245.749,69.423 248.436,68.883 251.030,69.801 C253.669,70.736 255.267,72.932 254.091,76.248 L253.583,77.679 C252.385,81.055 249.702,81.681 247.168,80.785 ZM250.137,72.318 C249.097,71.950 248.017,72.313 247.450,73.911 L246.943,75.344 C246.370,76.956 246.919,77.947 247.974,78.321 C249.030,78.696 250.096,78.276 250.667,76.662 L251.175,75.231 C251.726,73.678 251.193,72.693 250.137,72.318 ZM262.803,74.737 L265.468,75.944 L262.677,82.102 L263.769,82.597 L262.740,84.869 L261.647,84.373 L260.849,86.135 L258.139,84.908 L258.938,83.147 L253.737,80.792 L254.630,78.318 L262.803,74.737 ZM259.967,80.875 L261.175,78.211 L257.549,79.780 L259.967,80.875 ZM292.946,113.683 L292.946,133.742 L272.730,133.742 L272.730,126.492 L145.435,126.492 L145.435,120.905 L272.730,120.905 L272.730,113.683 L292.946,113.683 ZM286.989,357.951 L282.656,351.297 L306.001,336.112 L307.517,338.441 L307.593,366.396 L320.659,357.897 L325.290,365.009 L300.906,380.870 L299.226,378.292 L299.307,349.939 L286.989,357.951 ZM327.122,181.888 C329.080,181.888 330.668,183.474 330.668,185.431 C330.668,187.388 329.080,188.974 327.122,188.974 C325.164,188.974 323.577,187.388 323.577,185.431 C323.577,183.474 325.164,181.888 327.122,181.888 ZM330.668,221.509 C330.668,223.466 329.080,225.053 327.122,225.053 C325.164,225.053 323.577,223.466 323.577,221.509 C323.577,219.552 325.164,217.966 327.122,217.966 C329.080,217.966 330.668,219.552 330.668,221.509 ZM317.202,209.574 L317.202,197.366 L326.572,197.366 L326.572,200.261 L320.621,200.261 L320.621,202.546 L326.205,202.546 L326.205,205.371 L320.621,205.371 L320.621,209.574 L317.202,209.574 ZM337.809,209.574 L327.584,209.574 L327.584,208.493 L333.045,200.157 L327.880,200.157 L327.880,197.366 L337.669,197.366 L337.669,198.342 L332.330,206.592 L337.809,206.592 L337.809,209.574 ZM324.268,307.245 L356.716,321.495 L349.222,328.023 L361.508,337.713 L336.214,330.702 L343.708,324.175 L324.268,307.245 ZM350.736,279.081 C356.034,268.736 365.747,264.584 376.323,269.995 C386.719,275.312 389.210,285.708 383.912,296.053 C378.591,306.442 368.856,310.528 358.325,305.140 C347.748,299.729 345.415,289.472 350.736,279.081 ZM362.906,296.195 C368.329,298.970 373.590,297.385 376.273,292.145 C378.888,287.041 376.986,281.621 371.742,278.939 C366.454,276.234 360.966,277.929 358.375,282.989 C355.691,288.229 357.662,293.513 362.906,296.195 ZM363.677,248.529 L397.614,259.093 L394.640,268.640 L360.702,258.076 L363.677,248.529 ZM383.361,247.581 C373.660,246.194 366.344,239.251 368.151,226.641 L370.309,211.570 L405.495,216.605 L403.336,231.676 C401.559,244.085 393.062,248.970 383.361,247.581 ZM377.294,222.618 L376.545,227.842 C375.639,234.172 380.046,237.059 384.872,237.749 C389.698,238.440 394.172,236.568 395.042,230.489 L395.791,225.265 L377.294,222.618 Z"/>
</svg>