<svg xmlns="http://www.w3.org/2000/svg" width="269.4" height="289.782" viewBox="0 0 269.4 289.782">
  <defs>
    <style>
      .cls-1 {
        fill: #fff;
        fill-rule: evenodd;
      }
    </style>
  </defs>
  <path class="cls-1" d="M1234.91,286.715l-8.16,3.7-4.63-10.191,7.95-3.608,1.1,2.417-5.11,2.319,0.66,1.456,4.82-2.187,1.07,2.345-4.83,2.187,0.71,1.542,5.31-2.41Zm5.2-10.52a4.19,4.19,0,0,0-2.73.168c-0.72.259-1.34,0.74-1.14,1.3,0.26,0.72,1,.571,2.08.3,2.17-.528,4.66-0.473,5.53,1.949,0.86,2.39-1.03,4.226-3.38,5.092a5.993,5.993,0,0,1-5.38-.151l0.96-2.472a4.508,4.508,0,0,0,3.52.077c0.97-.353,1.53-0.943,1.32-1.529-0.19-.527-0.92-0.64-2.11-0.328-2.38.619-4.58,0.748-5.52-1.869-0.8-2.225,1.03-3.974,3.26-4.776a6.353,6.353,0,0,1,4.39-.172Zm6.02-2.385-3.15.866-0.69-2.512,9.34-2.575,0.7,2.512-3.17.872,2.29,8.277-3.04.836Zm12.24-5.582c3.89-.729,6.2,1.309,6.77,4.34s-0.75,5.917-4.7,6.657l-4.72.885-2.06-11Zm-0.06,8.68,1.64-.306c1.98-.372,2.39-1.979,2.11-3.486a2.563,2.563,0,0,0-3.2-2.295l-1.63.306Zm45.9-6.425c0.45-2.566,2.8-3.269,5.26-2.849s4.37,1.916,3.97,4.265c-0.47,2.742-2.59,3.319-5.24,2.866-0.76-.129-1.82-0.181-2.04,1.1l6.34,1.082-0.45,2.648L1302.73,278l0.44-2.57c0.56-3.277,3.18-3.511,5.45-3.124a1.357,1.357,0,0,0,1.74-.885c0.13-.773-0.56-1.183-1.32-1.312a1.346,1.346,0,0,0-1.79.894Zm10.76,3.3c0.92-3.53,3.55-4.3,6.21-3.61,2.71,0.7,4.49,2.751,3.61,6.156l-0.38,1.47c-0.9,3.466-3.52,4.323-6.12,3.649-2.57-.667-4.62-2.635-3.7-6.179Zm2.62,2.264c-0.43,1.656.2,2.6,1.29,2.877s2.11-.229,2.53-1.885l0.39-1.47c0.41-1.594-.21-2.53-1.29-2.811s-2.11.178-2.54,1.819Zm8.94,0.812c1.22-3.437,3.91-3.977,6.5-3.059,2.64,0.935,4.24,3.131,3.06,6.447l-0.51,1.431c-1.19,3.376-3.88,4-6.41,3.106-2.5-.887-4.38-3.027-3.15-6.479Zm2.41,2.484c-0.57,1.612-.02,2.6,1.03,2.977s2.13-.045,2.7-1.659l0.5-1.431c0.56-1.553.02-2.538-1.03-2.913s-2.12,0-2.69,1.593Zm18.53,0.6-2.79,6.158,1.09,0.5-1.03,2.272-1.09-.5-0.8,1.762-2.71-1.227,0.8-1.761-5.2-2.355,0.89-2.474,8.17-3.581Zm-5.5,4.931,1.2-2.664-3.62,1.569Zm-48.49-11.744a8.369,8.369,0,0,0-4-7.134h2.16a2.025,2.025,0,1,0,0-1.227h-3.8v-2.113h-5.46v2.113h-3.8a2.023,2.023,0,1,0,0,1.227h2.17a8.408,8.408,0,0,0-2.28,2.047,8.28,8.28,0,0,0-1.72,5.087v2.2h-2.12v5.454h5.46v-5.454h-2.12v-2.2a7.169,7.169,0,0,1,4.41-6.591v1.57h5.46v-1.571a7.13,7.13,0,0,1,4.41,6.592v2.2h-2.11v5.454h5.45v-5.454h-2.11v-2.2ZM1350.5,531.58a3.545,3.545,0,1,1-3.55-3.543A3.548,3.548,0,0,1,1350.5,531.58Zm-123.68,0a3.545,3.545,0,1,1-3.55-3.543A3.548,3.548,0,0,1,1226.82,531.58Zm14.47,4.61a4.576,4.576,0,0,0-2.4-1.772c-0.79-.287-1.65-0.324-1.87.281-0.29.787,0.44,1.183,1.53,1.713,2.19,1.081,4.22,2.869,3.26,5.5-0.96,2.6-3.83,2.816-6.4,1.89a6.519,6.519,0,0,1-4.39-3.9l2.53-1.392a4.908,4.908,0,0,0,2.89,2.526c1.06,0.39,1.94.284,2.17-.355,0.21-.573-0.31-1.173-1.53-1.75-2.42-1.15-4.35-2.581-3.3-5.431,0.89-2.423,3.65-2.6,6.07-1.711a6.974,6.974,0,0,1,3.8,2.934Zm10.03,10.028-5.28-1.4-1.29,1.733-3.55-.938,8.43-10.4,3.37,0.894,2.15,13.2-3.57-.946Zm-0.9-7.255-2.51,3.358,3.02,0.8Zm-0.76-4.766-1.41-1.53a2.587,2.587,0,0,1,3.95-.287c0.64,0.6,1.23.829,1.88,0.191l1.36,1.5a2.47,2.47,0,0,1-3.94.364C1250.86,533.829,1250.19,533.562,1249.66,534.2Zm12.81,16.58c-3.94-.623-6.34-3.35-5.7-7.381,0.63-3.961,3.76-5.886,7.7-5.262,3.97,0.626,6.34,3.367,5.71,7.381C1269.54,549.546,1266.44,551.4,1262.47,550.777Zm1.54-9.732a3.454,3.454,0,1,0,2.76,3.931A3.192,3.192,0,0,0,1264.01,541.045Zm15.47,7.813-0.1,3.3-3.45-.1,0.35-12.205,5.94,0.173c3.28,0.1,4.84,2.2,4.77,4.589-0.07,2.493-1.77,4.38-5.03,4.321Zm0.08-2.912,2.48,0.072a1.392,1.392,0,0,0,1.49-1.458,1.426,1.426,0,0,0-1.4-1.575l-2.48-.073Zm16.86,3.883-5.45.33-0.69,2.05-3.65.221,4.73-12.519,3.48-.211,6.19,11.86-3.69.223Zm-3.13-6.609-1.33,3.978,3.12-.189Zm18.32-5.706,1.08,6.735c0.58,3.562-1.27,5.906-4.8,6.469s-5.99-1.006-6.58-4.692l-1.07-6.7,3.4-.541,1.06,6.7c0.31,1.894,1.35,2.541,2.72,2.321s2.16-1.192,1.87-3.018l-1.07-6.735Zm5.18-1.315,2.28,9,5.67-1.434,0.72,2.841-9.02,2.28-3-11.838Zm16.53,8.088c-3.77,1.334-7.17.078-8.54-3.768-1.34-3.781.5-6.964,4.26-8.3,3.79-1.34,7.18-.062,8.54,3.768C1338.94,539.836,1337.1,542.949,1333.32,544.287ZM1330.03,535a3.454,3.454,0,1,0,4.29,2.143A3.18,3.18,0,0,0,1330.03,535ZM1165.56,389.431a3.545,3.545,0,1,1-3.55-3.543A3.547,3.547,0,0,1,1165.56,389.431Zm0,36.078a3.545,3.545,0,1,1-3.55-3.543A3.548,3.548,0,0,1,1165.56,425.509Zm-8.9-24.143c2.44,0,4.43,1.081,4.43,3.418a2.385,2.385,0,0,1-1.34,2.372,3.213,3.213,0,0,1,1.69,2.843c0,2.738-2.49,3.558-4.73,3.575h-6.3V401.366h6.25Zm-2.84,4.657h2.75a0.932,0.932,0,0,0,1.1-.907,0.952,0.952,0,0,0-1.06-.959h-2.79v1.866Zm0,4.865h2.91a1.116,1.116,0,0,0,1.29-1.15,1.141,1.141,0,0,0-1.29-1.169h-2.91v2.319Zm20.8,2.686h-3.81l-2.84-3.959h-1.21v3.959h-3.45V401.366h5.97c3.12,0,4.74,2.006,4.74,4.2a3.665,3.665,0,0,1-2.58,3.679l3.18,4.116v0.209Zm-7.86-9.452v2.929h2.55a1.279,1.279,0,0,0,1.31-1.412,1.377,1.377,0,0,0-1.34-1.517h-2.52Zm245.91-14.691a3.545,3.545,0,1,1-3.55-3.543A3.547,3.547,0,0,1,1412.67,389.431Zm0,36.078a3.545,3.545,0,1,1-3.55-3.543A3.548,3.548,0,0,1,1412.67,425.509Zm-13.47-11.935V401.366h9.37v2.9h-5.95v2.285h5.58v2.825h-5.58v4.2h-3.42Zm10.68-12.208h9.79v0.976l-5.34,8.25h5.48v2.982h-10.23v-1.081l5.47-8.336h-5.17v-2.791ZM1367.7,350.24h-5.63V477.2h-7.34v20.06h20.22V477.2h-7.25V350.24Zm-12.97-32.557V324.9H1227.44v5.587h127.29v7.25h20.22V317.683h-20.22ZM1202.58,464.728h5.63V337.742h7.28V317.683h-20.21v20.059h7.3V464.728Zm12.91,12.47h-20.21v20.06h20.21v-7.223h127.33v-5.586H1215.49V477.2Zm58.4-85.744,3.75,9.353h17.25l-25.47-56.933h-16.28l-25.55,56.933h17.09l3.74-9.353h25.47Zm-12.69-31.639,7.24,18.137h-14.56Zm47.01-2.684H1289.9V343.874h52.73v13.257h-18.39v43.676h-16.03V357.131Zm-49.66,57c20.1,0,29.79,12.362,29.79,28.06s-9.36,28.872-29.79,28.872h-24.41V414.134h24.41Zm-8.46,43.351h8.46c10.26,0,13.84-7.646,13.84-15.455s-3.99-14.476-13.84-14.476h-8.46v29.931Zm39.81-43.351h49.56v4.556l-24.9,38.467h28.07v13.909h-50.21v-5.042l25.47-38.876H1289.9V414.134Z" transform="translate(-1150.41 -262.656)"/>
</svg>
