<svg 
 xmlns="http://www.w3.org/2000/svg"
 xmlns:xlink="http://www.w3.org/1999/xlink"
 width="26px" height="26px">
<path fill-rule="evenodd"  fill="rgb(255, 255, 255)"
 d="M23.074,25.1000 L23.074,23.096 L24.136,23.096 L24.136,4.714 L24.951,4.714 L24.951,23.096 L25.1000,23.096 L25.1000,25.1000 L23.074,25.1000 ZM23.074,1.854 L4.653,1.854 L4.653,1.046 L23.074,1.046 L23.074,-0.000 L25.1000,-0.000 L25.1000,2.904 L23.074,2.904 L23.074,1.854 ZM21.324,22.208 L14.058,22.208 L14.058,21.478 L17.744,15.849 L13.693,15.849 L13.693,13.964 L20.864,13.964 L20.864,14.624 L17.261,20.194 L21.324,20.194 L21.324,22.208 ZM21.324,5.711 L18.662,5.711 L18.662,12.035 L16.343,12.035 L16.343,5.711 L13.693,5.711 L13.693,3.792 L21.324,3.792 L21.324,5.711 ZM13.467,18.027 C13.467,20.300 12.113,22.208 9.157,22.208 L5.624,22.208 L5.624,13.964 L9.157,13.964 C12.066,13.964 13.467,15.755 13.467,18.027 ZM7.932,20.241 L9.157,20.241 C10.641,20.241 11.159,19.134 11.159,18.003 C11.159,16.873 10.582,15.908 9.157,15.908 L7.932,15.908 L7.932,20.241 ZM8.374,3.792 L10.729,3.792 L14.415,12.035 L11.918,12.035 L11.377,10.681 L7.691,10.681 L7.149,12.035 L4.676,12.035 L8.374,3.792 ZM10.588,8.726 L9.540,6.100 L8.480,8.726 L10.588,8.726 ZM21.351,24.954 L2.925,24.954 L2.925,25.1000 L-0.000,25.1000 L-0.000,23.096 L2.925,23.096 L2.925,24.145 L21.351,24.145 L21.351,24.954 ZM1.872,21.290 L1.057,21.290 L1.057,2.904 L-0.000,2.904 L-0.000,-0.000 L2.925,-0.000 L2.925,2.904 L1.872,2.904 L1.872,21.290 Z"/>
</svg>