<svg xmlns="http://www.w3.org/2000/svg" width="405.32" height="405.094" viewBox="0 0 405.32 405.094">
  <defs>
    <style>
      .cls-1 {
        fill: #fff;
        fill-rule: evenodd;
      }
    </style>
  </defs>
  <path class="cls-1" d="M1192.46,260.7l-12.75,8.879,1.39,5.988-8.55,5.957-7.08-37.413,8.15-5.673,32.62,19.627-8.64,6.013Zm-17.39-11.415,2.66,11.633,7.29-5.077Zm62.15-3.433-10.01,4.121-11.77-7.333-3.17,1.305,4.29,10.415-9.09,3.744-13.24-32.117,15.7-6.466c8.22-3.384,14.66.133,17.05,5.914,1.62,3.946,1.63,7.862-2.81,12.48l12.82,7.386Zm-30.91-16.359,3.18,7.708,6.7-2.762c2.39-.982,2.7-3.206,1.91-5.133-0.83-2.019-2.79-3.519-5.18-2.536Zm35.21-11.426-9.93,2.01-1.6-7.926,29.48-5.973,1.61,7.928-9.98,2.02,5.3,26.115-9.59,1.941Zm55.44,21.574-27.8.453-0.56-34.731,27.1-.442,0.14,8.236-17.43.284,0.08,4.962,16.43-.268,0.14,7.988-16.44.268,0.09,5.259,18.12-.295Zm37.67-28.4c11.89,3.032,15.74,11.8,13.38,21.08s-9.9,15.657-21.97,12.577l-14.43-3.682,8.59-33.657Zm-11.54,24.352,5,1.275c6.06,1.547,9.33-2.432,10.51-7.049s-0.17-9.159-5.99-10.645l-5-1.275Zm48.76,27.642-24.98-12.2,15.25-31.215,24.36,11.891-3.61,7.4-15.66-7.645-2.18,4.46,14.76,7.208-3.5,7.18-14.77-7.209-2.31,4.728,16.28,7.948Zm22.97-26.425,22.33,16.64-1.66,2.227-26.22,9.74,12.5,9.313-5.08,6.8-23.32-17.382,1.84-2.466,26.64-9.731-11.78-8.78Zm65.68,91.38a13.28,13.28,0,0,0-1.6-8.524c-1.1-2.171-2.86-3.953-4.54-3.1-2.17,1.1-1.41,3.391-.14,6.673,2.52,6.634,3.32,14.483-3.97,18.183-7.19,3.656-13.72-1.567-17.38-8.647-2.94-5.679-4.02-10.256-1.63-16.99l8.16,2.058a14.3,14.3,0,0,0,1.14,11.091c1.5,2.941,3.58,4.449,5.34,3.552,1.59-.805,1.66-3.12.21-6.765-2.89-7.245-4.16-14.113,3.72-18.114,6.7-3.4,12.93,1.687,16.33,8.382,2.42,4.752,3.22,9.013,2.27,13.763Zm9.32,20.2-2.9-9.938,7.95-2.315,8.61,29.52-7.94,2.316-2.92-9.986-26.17,7.629-2.8-9.6Zm18.1,59.686-19.79,1.589c-10.47.893-16.86-5.01-17.69-15.381s4.28-17.144,15.11-18.014l19.69-1.581,0.8,9.965-19.69,1.581c-5.57.448-7.68,3.316-7.36,7.363s2.97,6.532,8.34,6.1l19.79-1.589Zm-2.58,27.6c-1.78,12.409-10.28,17.294-19.98,15.905s-17.02-8.33-15.21-20.94l2.16-15.071,35.19,5.035Zm-26.05-9.058-0.75,5.224c-0.9,6.33,3.51,9.217,8.33,9.907s9.3-1.181,10.17-7.26l0.75-5.224Zm-13.61,25.911,33.93,10.564-2.97,9.547-33.94-10.564Zm-12.94,30.552c5.29-10.345,15.01-14.5,25.58-9.086,10.4,5.317,12.89,15.713,7.59,26.058-5.32,10.389-15.05,14.475-25.59,9.087C1429.75,503.729,1427.41,493.472,1432.74,483.081Zm25.53,13.064c2.62-5.1.72-10.524-4.53-13.206-5.29-2.705-10.77-1.01-13.37,4.05-2.68,5.24-.71,10.524,4.54,13.206C1450.33,502.97,1455.59,501.385,1458.27,496.145ZM1104.74,498.7c-5.62-11.2-1.44-20.061,7.32-24.455s18.73-2.868,24.45,8.515l6.83,13.607-31.76,15.94Zm26.56-7.42-2.37-4.717c-2.87-5.714-8.14-5.569-12.49-3.384s-6.97,6.276-4.21,11.763l2.37,4.717Zm-11.13-55.965,7.22,27.487-34.37,9.022-7.04-26.8,8.15-2.14,4.52,17.229,4.91-1.289-4.26-16.247,7.9-2.075,4.27,16.247,5.21-1.366-4.71-17.915Zm-27.52-24.027a13.327,13.327,0,0,0-1.89,8.462c0.16,2.431,1.07,4.762,2.95,4.64,2.43-.158,2.63-2.56,2.76-6.078,0.3-7.088,2.66-14.615,10.82-15.144,8.05-.523,11.99,6.848,12.56,14.8,0.47,6.376-.35,11.007-5.2,16.254l-6.69-5.109a14.24,14.24,0,0,0,3.32-10.64c-0.21-3.292-1.52-5.494-3.5-5.367-1.77.116-2.76,2.213-2.86,6.136-0.2,7.793-1.74,14.606-10.56,15.178-7.5.487-11.22-6.645-11.7-14.139-0.35-5.318.6-9.548,3.34-13.541Zm25.97-12.208-35.43-2.805,0.79-9.966,35.43,2.805Zm-17.48-46.46a11.687,11.687,0,0,0-4.91,7.17c-1.36,5.624,1.12,10.083,7.88,11.71,4.44,1.068,10.48.068,12.16-6.89a12.3,12.3,0,0,0-.18-7.087l-4.44-1.068-2.1,8.732-7.65-1.841,4.06-16.874,15.35,3.693c3.87,3.228,4.79,9.817,3.19,16.478-3.29,13.667-13.67,16.651-22.7,14.478s-16.89-10.326-13.77-23.3a17.73,17.73,0,0,1,8.85-12.227Zm23.36-32.707c-3.93-1.671-5.39-2.394-6.64-2.959l-10.91-5.422,4.5-9.043,31.83,15.815-3.8,7.634-23.74,4.751,7.02,3.322,10.19,5.06-4.52,9.088-31.83-15.815,3.8-7.634Zm49.6,249.725-12.46-9.279-5.24,3.214-8.36-6.226,33.26-18.551,7.96,5.929-8.29,37.138-8.44-6.285Zm5.33-20.106-10.2,6.207,7.13,5.306Zm37.53,48.962L1207.11,594l-2.68-13.607-3.12-1.422-4.68,10.248-8.94-4.081,14.43-31.6,15.45,7.05c8.09,3.688,9.92,10.8,7.32,16.485-1.78,3.883-4.64,6.56-11.04,6.476l3.36,14.4Zm-9.15-33.743-3.47,7.585,6.6,3.008c2.35,1.072,4.19-.215,5.06-2.11,0.9-1.987.66-4.444-1.69-5.515Zm30.35,11.784-9.84-2.419,1.94-7.855,29.22,7.184-1.94,7.855-9.88-2.43-6.37,25.879-9.5-2.336ZM1286.86,610l-27.75-1.784,2.23-34.664,27.06,1.74-0.53,8.221-17.39-1.119-0.32,4.951,16.4,1.055-0.52,7.973-16.4-1.055-0.33,5.25,18.08,1.163Zm30.33-38.317c12.03-2.4,19.3,3.847,21.17,13.24s-2.16,18.391-14.38,20.826l-14.6,2.91-6.8-34.066Zm0.11,26.947,5.06-1.008c6.14-1.222,7.37-6.224,6.44-10.9s-4.12-8.187-10.01-7.013l-5.06,1.008Zm59.2-10.378-25.65,10.73-13.42-32.041,25.01-10.463,3.18,7.6-16.07,6.726,1.91,4.577,15.16-6.342,3.09,7.369-15.16,6.343,2.03,4.853,16.72-7ZM1364.66,555.3L1388,540.112l1.52,2.329,0.07,27.955,13.07-8.5,4.63,7.112-24.38,15.861-1.68-2.578,0.08-28.353-12.32,8.012ZM1131.51,289.445l7.49-6.527-12.28-9.69,25.29,7.01-7.5,6.528,19.45,16.929Zm274.76,14.25,19.44-16.929-7.5-6.528,25.3-7.01-12.29,9.69,7.5,6.527Zm-242.31,207.55-19.45,16.93,7.5,6.527-25.29,7.011,12.28-9.69-7.49-6.528Zm274.76,14.25-7.5,6.528,12.29,9.69-25.3-7.011,7.5-6.527-19.44-16.93Z" transform="translate(-1082.59 -204.906)"/>
</svg>
