<svg 
 xmlns="http://www.w3.org/2000/svg"
 xmlns:xlink="http://www.w3.org/1999/xlink"
 width="27px" height="27px">
<path fill-rule="evenodd"  fill="rgb(241, 242, 242)"
 d="M12.1000,25.998 C12.957,25.998 12.914,25.995 12.871,25.988 C12.540,25.940 12.266,25.702 12.169,25.380 L6.970,8.047 C6.878,7.742 6.961,7.411 7.187,7.186 C7.413,6.960 7.746,6.876 8.049,6.968 L25.382,12.168 C25.703,12.264 25.940,12.539 25.990,12.870 C26.040,13.202 25.893,13.533 25.614,13.719 L21.294,16.600 L25.746,21.052 C26.084,21.391 26.084,21.939 25.746,22.278 L22.279,25.744 C21.941,26.083 21.392,26.083 21.054,25.744 L16.601,21.292 L13.721,25.612 C13.559,25.856 13.287,25.998 12.1000,25.998 L12.1000,25.998 ZM16.466,19.065 C16.695,19.065 16.916,19.156 17.079,19.319 L21.666,23.906 L23.907,21.665 L19.320,17.078 C19.136,16.894 19.045,16.638 19.070,16.380 C19.096,16.122 19.236,15.888 19.452,15.744 L23.119,13.300 L9.093,9.091 L13.301,23.119 L15.745,19.451 C15.889,19.235 16.123,19.094 16.381,19.069 C16.409,19.067 16.438,19.065 16.466,19.065 L16.466,19.065 ZM4.946,4.945 C5.285,4.606 5.285,4.058 4.946,3.719 L3.213,1.986 C2.874,1.647 2.326,1.647 1.987,1.986 C1.649,2.325 1.649,2.873 1.987,3.211 L3.720,4.945 C3.890,5.114 4.111,5.198 4.333,5.198 C4.555,5.198 4.777,5.114 4.946,4.945 ZM4.333,7.799 C4.333,7.320 3.945,6.932 3.467,6.932 L0.867,6.932 C0.388,6.932 -0.000,7.320 -0.000,7.799 C-0.000,8.277 0.388,8.665 0.867,8.665 L3.467,8.665 C3.945,8.665 4.333,8.277 4.333,7.799 ZM3.213,13.611 L4.946,11.878 C5.285,11.539 5.285,10.991 4.946,10.652 C4.607,10.314 4.059,10.314 3.720,10.652 L1.987,12.386 C1.649,12.724 1.649,13.272 1.987,13.611 C2.156,13.780 2.378,13.865 2.600,13.865 C2.822,13.865 3.043,13.780 3.213,13.611 ZM11.879,4.945 L13.612,3.211 C13.951,2.873 13.951,2.325 13.612,1.986 C13.274,1.647 12.725,1.647 12.387,1.986 L10.654,3.719 C10.315,4.058 10.315,4.606 10.654,4.945 C10.823,5.114 11.045,5.198 11.266,5.198 C11.488,5.198 11.710,5.114 11.879,4.945 L11.879,4.945 ZM8.666,3.465 L8.666,0.866 C8.666,0.386 8.278,-0.002 7.800,-0.002 C7.321,-0.002 6.933,0.386 6.933,0.866 L6.933,3.465 C6.933,3.944 7.321,4.332 7.800,4.332 C8.278,4.332 8.666,3.944 8.666,3.465 Z"/>
</svg>